<svg width="1280" height="520" viewBox="0 0 1280 520" fill="none" xmlns="http://www.w3.org/2000/svg">
  <rect width="1280" height="520" rx="36" fill="#07101D"/>
  <rect width="1280" height="520" rx="36" fill="url(#bg)"/>
  <circle cx="1060" cy="110" r="170" fill="url(#orb1)" opacity="0.9"/>
  <circle cx="180" cy="420" r="150" fill="url(#orb2)" opacity="0.75"/>
  <circle cx="870" cy="420" r="120" fill="url(#orb3)" opacity="0.55"/>
  <path d="M0 374C138 331 257 313 406 319C617 327 789 424 1034 414C1124 410 1208 387 1280 351V520H0V374Z" fill="url(#wave)" opacity="0.9"/>
  <g opacity="0.18" stroke="#DDE9FF">
    <path d="M88 88H470"/>
    <path d="M88 126H410"/>
    <path d="M88 164H370"/>
    <path d="M88 202H340"/>
  </g>
  <text x="88" y="266" fill="#F4F8FF" font-size="64" font-family="Arial, Helvetica, sans-serif" font-weight="700">
    Zulfayqar Khan
  </text>
  <text x="88" y="320" fill="#9FB4D1" font-size="26" font-family="Arial, Helvetica, sans-serif">
    Machine learning builder focused on quantitative finance,
  </text>
  <text x="88" y="356" fill="#9FB4D1" font-size="26" font-family="Arial, Helvetica, sans-serif">
    audio intelligence, and polished end-to-end AI projects.
  </text>
  <rect x="88" y="398" width="198" height="44" rx="22" fill="#79E7C6"/>
  <text x="118" y="426" fill="#07101D" font-size="20" font-family="Arial, Helvetica, sans-serif" font-weight="700">
    Research + Build
  </text>
  <rect x="302" y="398" width="162" height="44" rx="22" fill="#18263F" stroke="#2A4267"/>
  <text x="339" y="426" fill="#EAF2FF" font-size="20" font-family="Arial, Helvetica, sans-serif" font-weight="700">
    Finance + ML
  </text>
  <rect x="980" y="210" width="206" height="120" rx="24" fill="#0D172A" stroke="#284262"/>
  <text x="1012" y="252" fill="#7FE4FF" font-size="18" font-family="Arial, Helvetica, sans-serif" font-weight="700">
    Featured focus
  </text>
  <text x="1012" y="286" fill="#F4F8FF" font-size="24" font-family="Arial, Helvetica, sans-serif" font-weight="700">
    Quant Research
  </text>
  <text x="1012" y="315" fill="#9FB4D1" font-size="16" font-family="Arial, Helvetica, sans-serif">
    TCN allocation systems
  </text>
  <defs>
    <linearGradient id="bg" x1="77" y1="44" x2="1177" y2="520" gradientUnits="userSpaceOnUse">
      <stop stop-color="#091424"/>
      <stop offset="0.46" stop-color="#0D1930"/>
      <stop offset="1" stop-color="#132343"/>
    </linearGradient>
    <radialGradient id="orb1" cx="0" cy="0" r="1" gradientUnits="userSpaceOnUse" gradientTransform="translate(1060 110) rotate(90) scale(170)">
      <stop stop-color="#8DCEFF"/>
      <stop offset="1" stop-color="#8DCEFF" stop-opacity="0"/>
    </radialGradient>
    <radialGradient id="orb2" cx="0" cy="0" r="1" gradientUnits="userSpaceOnUse" gradientTransform="translate(180 420) rotate(90) scale(150)">
      <stop stop-color="#FF9E7D"/>
      <stop offset="1" stop-color="#FF9E7D" stop-opacity="0"/>
    </radialGradient>
    <radialGradient id="orb3" cx="0" cy="0" r="1" gradientUnits="userSpaceOnUse" gradientTransform="translate(870 420) rotate(90) scale(120)">
      <stop stop-color="#79E7C6"/>
      <stop offset="1" stop-color="#79E7C6" stop-opacity="0"/>
    </radialGradient>
    <linearGradient id="wave" x1="640" y1="319" x2="640" y2="520" gradientUnits="userSpaceOnUse">
      <stop stop-color="#132444" stop-opacity="0.15"/>
      <stop offset="1" stop-color="#0A1325"/>
    </linearGradient>
  </defs>
</svg>
